<svg width="1440" height="1248" viewBox="0 0 1440 1248" fill="none" xmlns="http://www.w3.org/2000/svg">
  <g filter="url(#filter0_d)">
    <path d="M763.5 762.5C574 813.698 197 848.5 -2.50003 847C-2.50003 847 -338.5 1411 -2.50003 1129C333.5 847 927.5 819 1442.5 847C1957.5 875 1442.5 -53 1442.5 -53C1442.5 -53 1411.38 193 1317.5 378C1202.05 605.5 953 711.302 763.5 762.5Z" fill="url(#paint0_angular)"/>
  </g>
  <path d="M763.5 762.5C574 813.698 197 848.5 -2.50003 847C-2.50003 847 -338.5 1411 -2.50003 1129C333.5 847 927.5 819 1442.5 847C1957.5 875 1442.5 -53 1442.5 -53C1442.5 -53 1411.38 193 1317.5 378C1202.05 605.5 953 711.302 763.5 762.5Z" fill="url(#paint1_radial)" fill-opacity="0.4"/>
  <path d="M763.5 762.5C574 813.698 197 848.5 -2.5 847V1134C208.5 961.5 388.358 905.604 810 852.5C1213.53 806.319 1391.9 792.617 1550.5 485L1442.5 -53C1442.5 -53 1411.38 193 1317.5 378C1202.05 605.5 953 711.302 763.5 762.5Z" fill="url(#paint2_radial)" fill-opacity="0.3"/>
  <defs>
    <filter id="filter0_d" x="-175.833" y="-73" width="1883.22" height="1320.96" filterUnits="userSpaceOnUse" color-interpolation-filters="sRGB">
      <feFlood flood-opacity="0" result="BackgroundImageFix"/>
      <feColorMatrix in="SourceAlpha" type="matrix" values="0 0 0 0 0 0 0 0 0 0 0 0 0 0 0 0 0 0 127 0"/>
      <feOffset dx="6" dy="10"/>
      <feGaussianBlur stdDeviation="15"/>
      <feColorMatrix type="matrix" values="0 0 0 0 0 0 0 0 0 0 0 0 0 0 0 0 0 0 0.15 0"/>
      <feBlend mode="normal" in2="BackgroundImageFix" result="effect1_dropShadow"/>
      <feBlend mode="normal" in="SourceGraphic" in2="effect1_dropShadow" result="shape"/>
    </filter>
    <radialGradient id="paint0_angular" cx="0" cy="0" r="1" gradientUnits="userSpaceOnUse" gradientTransform="translate(720.003 397.022) rotate(149.636) scale(600.355 963.86)">
      <stop offset="0.489583" stop-color="#FFEBD9"/>
      <stop offset="0.578125" stop-color="#FAFFD9"/>
      <stop offset="0.677083" stop-color="#DAFFD9"/>
      <stop offset="1" stop-color="#D9FFFD"/>
    </radialGradient>
    <radialGradient id="paint1_radial" cx="0" cy="0" r="1" gradientUnits="userSpaceOnUse" gradientTransform="translate(807.5 1731) rotate(-102.516) scale(964.419 1548.36)">
      <stop offset="0.489583" stop-color="#FFEBD9"/>
      <stop offset="0.578125"/>
      <stop offset="0.961175" stop-opacity="0.04"/>
      <stop offset="1" stop-opacity="0"/>
    </radialGradient>
    <radialGradient id="paint2_radial" cx="0" cy="0" r="1" gradientUnits="userSpaceOnUse" gradientTransform="translate(263 -721) rotate(53.0781) scale(1761.2 1542.39)">
      <stop offset="0.538871"/>
      <stop offset="0.897259" stop-opacity="0.15"/>
      <stop offset="0.953403" stop-opacity="0.04"/>
      <stop offset="1" stop-opacity="0"/>
    </radialGradient>
  </defs>
</svg>
