<svg width="15" height="44" viewBox="0 0 15 44" fill="none" xmlns="http://www.w3.org/2000/svg">
<path d="M6.1859 32.4524L5.75288 32.2024V32.7024V39.8214L2.49498 37.9405V30.8214V30.3214L2.06197 30.0714L0.433013 29.131V16.2976C0.433013 12.9783 3.29549 11.7836 7.01068 13.9286C10.7259 16.0735 13.5884 20.5735 13.5884 23.8929V36.7262L11.9594 35.7857L11.5264 35.5357V36.0357V43.1548L8.26848 41.2738V34.1548V33.6548L7.83547 33.4048L6.1859 32.4524ZM7.01068 12.9286C4.28897 11.3572 2.08258 7.53562 2.08258 4.39286C2.08258 1.25009 4.28897 -0.0237626 7.01068 1.54762C9.73239 3.119 11.9388 6.94057 11.9388 10.0833C11.9388 13.2261 9.73239 14.5 7.01068 12.9286Z" fill="#B6B4B4" stroke="#DADADA"/>
</svg>
